<!--?xml version="1.0" standalone="no"?-->
              <svg id="sw-js-blob-svg" viewBox="0 0 100 100" xmlns="http://www.w3.org/2000/svg" version="1.1">
                    <defs> 
                        <linearGradient id="sw-gradient" x1="0" x2="1" y1="1" y2="0">
                            <stop id="stop1" stop-color="rgba(248, 117, 55, 1)" offset="0%"></stop>
                            <stop id="stop2" stop-color="rgba(251, 168, 31, 1)" offset="100%"></stop>
                        </linearGradient>
                    </defs>
                <path fill="url(#sw-gradient)" d="M22.9,-33.5C28.3,-27.6,30.3,-19.1,31.9,-11.1C33.5,-3.1,34.7,4.3,31.8,9.4C28.8,14.5,21.7,17.3,15.7,23C9.8,28.6,4.9,37,0.2,36.7C-4.4,36.4,-8.9,27.3,-14.8,21.7C-20.7,16,-28.1,13.8,-32.3,8.7C-36.5,3.5,-37.6,-4.5,-34.1,-9.8C-30.7,-15.2,-22.8,-17.8,-16.4,-23.3C-9.9,-28.8,-5,-37.2,1.9,-39.8C8.8,-42.4,17.5,-39.3,22.9,-33.5Z" width="100%" height="100%" transform="translate(50 50)" stroke-width="0" style="transition: all 0.3s ease 0s;"></path>
              </svg>